<svg width="94" height="100" viewBox="0 0 94 100" fill="none" xmlns="http://www.w3.org/2000/svg">
<path d="M92.9584 44.27C92.8996 43.856 92.7204 43.4684 92.443 43.1554C92.1657 42.8425 91.8024 42.618 91.3984 42.51L89.6984 42.035C89.5844 41.735 89.4674 41.444 89.3424 41.17L90.2034 39.647C90.4147 39.2812 90.5133 38.8611 90.4868 38.4395C90.4603 38.0179 90.3099 37.6135 90.0544 37.277C89.1671 36.0925 88.1152 35.0409 86.9304 34.154C86.5938 33.8979 86.1888 33.7473 85.7667 33.7212C85.3445 33.695 84.9241 33.7945 84.5584 34.007L83.0344 34.872C82.7524 34.7427 82.4647 34.6233 82.1714 34.514L81.7004 32.814C81.588 32.4075 81.3592 32.0428 81.0423 31.7646C80.7253 31.4863 80.334 31.3068 79.9164 31.248C78.4484 31.04 76.9584 31.04 75.4904 31.248C75.0751 31.3069 74.6865 31.487 74.3731 31.7657C74.0596 32.0445 73.8354 32.4095 73.7284 32.815L73.2594 34.508C72.9684 34.616 72.6814 34.735 72.3924 34.868L70.8664 34.001C70.5009 33.7921 70.0821 33.695 69.6619 33.7217C69.2418 33.7483 68.8386 33.8976 68.5024 34.151C67.3156 35.0376 66.2619 36.0897 65.3734 37.275C65.1224 37.6092 64.9739 38.0091 64.946 38.4262C64.9181 38.8432 65.0121 39.2594 65.2164 39.624L65.2264 39.642L66.0924 41.165C65.9614 41.451 65.8414 41.74 65.7344 42.029L64.0514 42.501C63.643 42.6094 63.2757 42.8359 62.9955 43.1522C62.7153 43.4685 62.5347 43.8605 62.4764 44.279C62.2639 45.7407 62.2639 47.2254 62.4764 48.687C62.5329 49.1059 62.7119 49.4987 62.9908 49.8163C63.2698 50.1339 63.6363 50.362 64.0444 50.472L65.7354 50.946C65.8434 51.237 65.9634 51.527 66.0934 51.81L65.2274 53.333L65.2174 53.351C65.0128 53.7163 64.9191 54.1332 64.9475 54.5508C64.9759 54.9685 65.1253 55.3688 65.3774 55.703C66.2626 56.8846 67.3123 57.9335 68.4944 58.818C68.8307 59.0737 69.2348 59.2249 69.6563 59.2528C70.0779 59.2807 70.4983 59.1841 70.8654 58.975L72.3984 58.109C72.6884 58.242 72.9744 58.361 73.2604 58.467L73.7254 60.143C73.8319 60.5546 74.0584 60.9253 74.376 61.2078C74.6937 61.4904 75.0882 61.6722 75.5094 61.73C76.9774 61.9387 78.4674 61.9387 79.9354 61.73C80.3504 61.6689 80.7386 61.4881 81.0524 61.2098C81.3663 60.9315 81.5921 60.5677 81.7024 60.163L82.1724 58.469C82.4634 58.36 82.7514 58.241 83.0314 58.113L84.5584 58.979C84.9243 59.1902 85.3444 59.2886 85.7661 59.2619C86.1877 59.2352 86.592 59.0846 86.9284 58.829C88.1153 57.9422 89.1693 56.8902 90.0584 55.705C90.313 55.3693 90.4629 54.966 90.4894 54.5455C90.5159 54.125 90.4178 53.706 90.2074 53.341L89.3444 51.815C89.4674 51.545 89.5854 51.259 89.7004 50.95L91.4004 50.477C91.8055 50.3658 92.1691 50.1382 92.4461 49.8223C92.723 49.5064 92.9012 49.1162 92.9584 48.7C93.1668 47.2307 93.1668 45.7393 92.9584 44.27ZM90.2984 47.943L88.6824 48.394C88.3456 48.4845 88.0362 48.6563 87.7813 48.8943C87.5264 49.1323 87.3338 49.4292 87.2204 49.759C87.0882 50.1404 86.9346 50.5139 86.7604 50.878C86.6011 51.1939 86.5227 51.5443 86.5323 51.8979C86.5419 52.2516 86.6392 52.5973 86.8154 52.904L87.6384 54.361C87.034 55.1215 86.3448 55.8106 85.5844 56.415L84.1424 55.6C83.837 55.4205 83.4919 55.3196 83.1379 55.3066C82.7839 55.2935 82.4322 55.3685 82.1144 55.525C81.7538 55.7004 81.3831 55.8543 81.0044 55.986C80.6696 56.0975 80.3677 56.2904 80.1258 56.5473C79.8839 56.8042 79.7096 57.1171 79.6184 57.458L79.1704 59.074C78.2067 59.1819 77.2341 59.1819 76.2704 59.074L75.8224 57.458C75.7304 57.1175 75.5559 56.805 75.3143 56.5481C75.0728 56.2912 74.7716 56.0978 74.4374 55.985C74.0545 55.8533 73.6801 55.698 73.3164 55.52C73.0016 55.3653 72.6535 55.2908 72.303 55.3032C71.9525 55.3156 71.6105 55.4145 71.3074 55.591L69.8534 56.412C69.0921 55.8083 68.402 55.1199 67.7964 54.36L68.6284 52.897C68.8002 52.5923 68.8953 52.2504 68.9054 51.9007C68.9155 51.551 68.8404 51.2041 68.6864 50.89C68.509 50.5251 68.354 50.1498 68.2224 49.766C68.1088 49.4359 67.9159 49.1387 67.6607 48.9005C67.4054 48.6624 67.0956 48.4905 66.7584 48.4L65.1434 47.948C65.0325 46.9845 65.0325 46.0115 65.1434 45.048L66.7544 44.597C67.0943 44.506 67.4065 44.3326 67.6632 44.092C67.92 43.8515 68.1135 43.5512 68.2264 43.218C68.3588 42.8333 68.5144 42.4569 68.6924 42.091C68.8451 41.7762 68.9188 41.4289 68.9071 41.0792C68.8954 40.7295 68.7987 40.3879 68.6254 40.084L67.7984 38.63C68.404 37.8705 69.0941 37.1823 69.8554 36.579L71.3154 37.409C71.6209 37.5812 71.9638 37.6764 72.3144 37.6863C72.6649 37.6963 73.0126 37.6206 73.3274 37.466C73.6895 37.2878 74.0622 37.1322 74.4434 37C74.7756 36.8868 75.0749 36.6937 75.315 36.4377C75.5551 36.1818 75.7286 35.8707 75.8204 35.532L76.2684 33.915C77.2321 33.8071 78.2048 33.8071 79.1684 33.915L79.6174 35.531C79.7083 35.8708 79.8819 36.1827 80.1227 36.4391C80.3634 36.6954 80.664 36.8881 80.9974 37C81.3818 37.1331 81.7579 37.2894 82.1234 37.468C82.4383 37.6205 82.7856 37.694 83.1353 37.6822C83.485 37.6704 83.8265 37.5735 84.1304 37.4L85.5854 36.574C86.3458 37.1782 87.0346 37.8673 87.6384 38.628L86.8114 40.091C86.6374 40.3948 86.5411 40.7369 86.5312 41.0869C86.5212 41.4368 86.5979 41.7838 86.7544 42.097C86.9297 42.4632 87.0846 42.8387 87.2184 43.222C87.3308 43.5527 87.5227 43.8506 87.7773 44.0897C88.0319 44.3288 88.3413 44.5016 88.6784 44.593L90.2974 45.045C90.4055 46.008 90.4058 46.98 90.2984 47.943ZM47.1854 43.616C44.6055 43.616 42.0836 44.381 39.9385 45.8143C37.7935 47.2476 36.1216 49.2848 35.1343 51.6683C34.147 54.0518 33.8887 56.6745 34.392 59.2048C34.8953 61.7351 36.1377 64.0593 37.9619 65.8835C39.7861 67.7077 42.1104 68.9501 44.6406 69.4534C47.1709 69.9567 49.7936 69.6984 52.1771 68.7111C54.5606 67.7238 56.5978 66.0519 58.0311 63.9069C59.4644 61.7618 60.2294 59.2399 60.2294 56.66C60.2254 53.2017 58.8499 49.8863 56.4045 47.4409C53.9592 44.9955 50.6437 43.62 47.1854 43.616ZM47.1854 66.969C45.1465 66.969 43.1533 66.3644 41.458 65.2316C39.7627 64.0989 38.4414 62.4888 37.6611 60.6051C36.8809 58.7214 36.6767 56.6486 37.0745 54.6488C37.4723 52.6491 38.4541 50.8122 39.8958 49.3704C41.3376 47.9287 43.1745 46.9469 45.1742 46.5491C47.174 46.1513 49.2468 46.3555 51.1305 47.1357C53.0142 47.916 54.6243 49.2373 55.757 50.9326C56.8898 52.6279 57.4944 54.6211 57.4944 56.66C57.4912 59.3932 56.4041 62.0134 54.4715 63.9461C52.5388 65.8787 49.9185 66.9658 47.1854 66.969ZM77.7194 38.669C76.1719 38.6694 74.6592 39.1286 73.3726 39.9886C72.086 40.8485 71.0832 42.0706 70.491 43.5004C69.8989 44.9301 69.7439 46.5033 70.0457 48.0212C70.3474 49.539 71.0925 50.9333 72.1865 52.0278C73.2806 53.1222 74.6746 53.8678 76.1923 54.1702C77.71 54.4725 79.2833 54.3182 80.7133 53.7265C82.1433 53.1349 83.3658 52.1326 84.2262 50.8463C85.0866 49.5601 85.5464 48.0475 85.5474 46.5C85.5461 44.4238 84.7211 42.433 83.2535 40.9645C81.7859 39.4959 79.7956 38.6697 77.7194 38.667V38.669ZM77.7194 51.585C76.7123 51.5846 75.728 51.2855 74.8909 50.7256C74.0538 50.1657 73.4016 49.3701 73.0168 48.4395C72.6319 47.5088 72.5318 46.485 72.7289 45.4974C72.9261 44.5098 73.4117 43.6028 74.1244 42.8913C74.837 42.1798 75.7447 41.6956 76.7326 41.5C77.7205 41.3044 78.7442 41.4062 79.6743 41.7925C80.6043 42.1788 81.3989 42.8322 81.9575 43.6702C82.5161 44.5081 82.8136 45.4929 82.8124 46.5C82.8079 47.8485 82.2696 49.1402 81.3151 50.0928C80.3607 51.0454 79.0679 51.5812 77.7194 51.583V51.585ZM66.5194 83.778C66.0885 80.4592 64.6566 77.3505 62.4144 74.866C61.291 73.6404 59.9232 72.6637 58.3993 71.9991C56.8753 71.3344 55.229 70.9965 53.5664 71.007H40.8134C39.15 70.9958 37.5027 71.3332 35.9776 71.9973C34.4525 72.6614 33.0833 73.6376 31.9584 74.863C29.7178 77.3487 28.2876 80.4581 27.8584 83.777L26.3764 94.043C26.2532 94.8 26.2939 95.5746 26.4958 96.3145C26.6976 97.0544 27.0559 97.7424 27.5464 98.332C28.0178 98.8683 28.6005 99.2954 29.2538 99.5835C29.9072 99.8716 30.6155 100.014 31.3294 100H63.0424C63.7577 100.014 64.4675 99.8715 65.1221 99.5827C65.7767 99.2939 66.3604 98.8657 66.8324 98.328C67.3221 97.7387 67.6793 97.051 67.8798 96.3114C68.0803 95.5719 68.1194 94.798 67.9944 94.042L66.5194 83.778ZM64.7644 96.539C64.5483 96.779 64.2819 96.9685 63.9843 97.0939C63.6867 97.2194 63.3651 97.2778 63.0424 97.265H31.3294C31.0075 97.2777 30.6868 97.2194 30.39 97.0941C30.0932 96.9688 29.8277 96.7796 29.6124 96.54C29.3772 96.2475 29.2082 95.9075 29.1169 95.5435C29.0255 95.1794 29.0141 94.7999 29.0834 94.431L30.5584 84.167C31.3074 78.977 34.7684 73.74 40.8094 73.74H53.5594C59.5964 73.74 63.0594 78.977 63.8044 84.167L65.2834 94.433C65.3544 94.8007 65.3448 95.1794 65.2552 95.543C65.1656 95.9066 64.9981 96.2464 64.7644 96.539ZM28.9484 59.6V37.748C28.9485 37.5683 28.9132 37.3904 28.8445 37.2243C28.7758 37.0583 28.6751 36.9074 28.548 36.7804C28.421 36.6533 28.2701 36.5526 28.1041 36.4839C27.938 36.4152 27.7601 36.3799 27.5804 36.38H22.2174C21.9108 35.1363 21.1964 34.0313 20.188 33.2413C19.1797 32.4514 17.9358 32.0222 16.6549 32.0222C15.374 32.0222 14.1301 32.4514 13.1218 33.2413C12.1135 34.0313 11.399 35.1363 11.0924 36.38H5.7284C5.54859 36.3797 5.37048 36.4149 5.20428 36.4836C5.03807 36.5522 4.88703 36.6529 4.75979 36.78C4.63255 36.907 4.5316 37.0579 4.46273 37.224C4.39385 37.3901 4.3584 37.5682 4.3584 37.748V43.112C3.11479 43.4177 2.00959 44.1315 1.21948 45.1394C0.429377 46.1472 0 47.3909 0 48.6715C0 49.9521 0.429377 51.1958 1.21948 52.2036C2.00959 53.2115 3.11479 53.9253 4.3584 54.231V59.6C4.35999 59.9621 4.5051 60.3088 4.76191 60.5642C5.01872 60.8195 5.36628 60.9625 5.7284 60.962H27.5804C27.9423 60.9623 28.2895 60.8191 28.5459 60.5637C28.8023 60.3084 28.9471 59.9619 28.9484 59.6ZM26.2134 58.232H7.0954V53.032C7.09593 52.8522 7.06096 52.674 6.9925 52.5077C6.92404 52.3413 6.82343 52.1902 6.69644 52.0628C6.56945 51.9354 6.41857 51.8344 6.25246 51.7654C6.08634 51.6965 5.90826 51.661 5.7284 51.661C5.33122 51.6683 4.93656 51.5963 4.5675 51.4493C4.19843 51.3024 3.86235 51.0833 3.5789 50.805C3.29544 50.5267 3.07028 50.1947 2.91659 49.8284C2.76289 49.462 2.68373 49.0688 2.68373 48.6715C2.68373 48.2743 2.76289 47.881 2.91659 47.5147C3.07028 47.1483 3.29544 46.8163 3.5789 46.538C3.86235 46.2597 4.19843 46.0406 4.5675 45.8937C4.93656 45.7467 5.33122 45.6747 5.7284 45.682C6.09105 45.6817 6.43875 45.5375 6.69508 45.281C6.95141 45.0245 7.0954 44.6767 7.0954 44.314V39.114H12.2954C12.657 39.1127 13.0034 38.9683 13.2588 38.7123C13.5142 38.4563 13.6579 38.1096 13.6584 37.748C13.6727 36.9638 13.9943 36.2166 14.554 35.6671C15.1136 35.1176 15.8666 34.8097 16.6509 34.8097C17.4352 34.8097 18.1882 35.1176 18.7478 35.6671C19.3075 36.2166 19.6291 36.9638 19.6434 37.748C19.6434 38.1106 19.7874 38.4583 20.0438 38.7146C20.3002 38.971 20.6479 39.115 21.0104 39.115H26.2104L26.2134 58.232ZM47.1854 32.278C50.3774 32.278 53.4977 31.3315 56.1518 29.5581C58.8058 27.7847 60.8744 25.2642 62.0959 22.3151C63.3174 19.3661 63.637 16.1211 63.0143 12.9904C62.3916 9.85979 60.8545 6.98409 58.5974 4.72701C56.3403 2.46993 53.4646 0.93284 50.334 0.310114C47.2033 -0.312613 43.9583 0.00699282 41.0093 1.22852C38.0603 2.45004 35.5397 4.51861 33.7663 7.17266C31.9929 9.8267 31.0464 12.947 31.0464 16.139C31.0512 20.4179 32.7531 24.5201 35.7787 27.5457C38.8043 30.5714 42.9065 32.2732 47.1854 32.278ZM47.1854 2.73501C49.8357 2.73501 52.4264 3.5209 54.63 4.99331C56.8337 6.46572 58.5512 8.55852 59.5654 11.007C60.5796 13.4556 60.845 16.1499 60.3279 18.7492C59.8109 21.3486 58.5347 23.7362 56.6606 25.6102C54.7866 27.4843 52.399 28.7605 49.7996 29.2775C47.2003 29.7946 44.506 29.5292 42.0574 28.515C39.6089 27.5008 37.5161 25.7833 36.0437 23.5796C34.5713 21.376 33.7854 18.7853 33.7854 16.135C33.7904 12.5827 35.2038 9.17723 37.7157 6.66533C40.2276 4.15343 43.633 2.74003 47.1854 2.73501ZM38.5394 18.556C38.407 18.4303 38.3011 18.2793 38.2279 18.1119C38.1548 17.9446 38.1159 17.7643 38.1136 17.5817C38.1112 17.3991 38.1454 17.2179 38.2142 17.0487C38.283 16.8795 38.385 16.7259 38.5141 16.5967C38.6433 16.4676 38.7969 16.3656 38.9661 16.2968C39.1353 16.228 39.3165 16.1938 39.4991 16.1962C39.6817 16.1985 39.862 16.2374 40.0293 16.3105C40.1967 16.3837 40.3476 16.4896 40.4734 16.622L43.6584 19.808L53.8974 9.56901C54.1573 9.33212 54.4985 9.20442 54.8501 9.21242C55.2016 9.22042 55.5366 9.36352 55.7855 9.61199C56.0343 9.86047 56.178 10.1952 56.1865 10.5468C56.1951 10.8984 56.0679 11.2397 55.8314 11.5L44.6254 22.709C44.3688 22.9651 44.021 23.1089 43.6584 23.1089C43.2958 23.1089 42.9481 22.9651 42.6914 22.709L38.5394 18.556ZM64.5034 16.139C64.5034 15.7762 64.6475 15.4282 64.9041 15.1717C65.1606 14.9151 65.5086 14.771 65.8714 14.771H74.1314C75.4444 14.7721 76.7033 15.2938 77.6322 16.2217C78.5611 17.1496 79.084 18.4081 79.0864 19.721V28.552C79.0768 28.9083 78.9285 29.2467 78.6731 29.4953C78.4177 29.7439 78.0753 29.883 77.7189 29.883C77.3625 29.883 77.0201 29.7439 76.7647 29.4953C76.5093 29.2467 76.361 28.9083 76.3514 28.552V19.721C76.3501 19.1331 76.1156 18.5697 75.6994 18.1545C75.2832 17.7392 74.7193 17.506 74.1314 17.506H65.8714C65.6918 17.5061 65.5139 17.4709 65.348 17.4022C65.182 17.3336 65.0312 17.2329 64.9041 17.106C64.7771 16.979 64.6763 16.8283 64.6076 16.6624C64.5388 16.4965 64.5034 16.3186 64.5034 16.139ZM26.5124 84.752C26.5125 84.9317 26.4772 85.1096 26.4085 85.2757C26.3398 85.4417 26.2391 85.5926 26.112 85.7196C25.985 85.8467 25.8341 85.9474 25.6681 86.0161C25.502 86.0848 25.3241 86.1201 25.1444 86.12H20.2444C18.9314 86.1176 17.673 85.5947 16.7451 84.6658C15.8172 83.7369 15.2955 82.478 15.2944 81.165V63.509C15.2895 63.3263 15.3212 63.1445 15.3877 62.9742C15.4542 62.804 15.5541 62.6488 15.6816 62.5179C15.8091 62.3869 15.9615 62.2828 16.1299 62.2117C16.2982 62.1406 16.4791 62.104 16.6619 62.104C16.8447 62.104 17.0256 62.1406 17.1939 62.2117C17.3623 62.2828 17.5147 62.3869 17.6422 62.5179C17.7697 62.6488 17.8696 62.804 17.9361 62.9742C18.0026 63.1445 18.0343 63.3263 18.0294 63.509V81.165C18.0294 81.7529 18.2626 82.3168 18.6779 82.733C19.0931 83.1492 19.6565 83.3837 20.2444 83.385H25.1444C25.324 83.3849 25.5019 83.4201 25.6678 83.4888C25.8338 83.5574 25.9846 83.6581 26.1117 83.785C26.2387 83.912 26.3395 84.0627 26.4083 84.2286C26.477 84.3946 26.5124 84.5724 26.5124 84.752ZM15.2894 29.476V19.721C15.291 18.4087 15.813 17.1505 16.741 16.2226C17.6689 15.2946 18.9271 14.7726 20.2394 14.771H28.5004C28.8567 14.7806 29.1951 14.9289 29.4437 15.1844C29.6923 15.4398 29.8314 15.7821 29.8314 16.1385C29.8314 16.4949 29.6923 16.8373 29.4437 17.0927C29.1951 17.3481 28.8567 17.4964 28.5004 17.506H20.2394C19.6522 17.5068 19.0893 17.7404 18.674 18.1556C18.2588 18.5709 18.0252 19.1338 18.0244 19.721V29.476C18.0293 29.6587 17.9976 29.8405 17.9311 30.0108C17.8646 30.181 17.7647 30.3362 17.6372 30.4671C17.5097 30.5981 17.3573 30.7022 17.1889 30.7733C17.0206 30.8444 16.8397 30.881 16.6569 30.881C16.4741 30.881 16.2932 30.8444 16.1249 30.7733C15.9565 30.7022 15.8041 30.5981 15.6766 30.4671C15.5491 30.3362 15.4492 30.181 15.3827 30.0108C15.3162 29.8405 15.2845 29.6587 15.2894 29.476ZM79.0894 64.434V81.165C79.0878 82.4787 78.5653 83.7381 77.6364 84.667C76.7075 85.5959 75.4481 86.1184 74.1344 86.12H69.2344C68.8781 86.1104 68.5397 85.9621 68.2911 85.7067C68.0425 85.4513 67.9034 85.1089 67.9034 84.7525C67.9034 84.3961 68.0425 84.0537 68.2911 83.7983C68.5397 83.5429 68.8781 83.3946 69.2344 83.385H74.1344C74.7229 83.3842 75.2871 83.1501 75.7033 82.7339C76.1195 82.3177 76.3536 81.7535 76.3544 81.165V64.434C76.3495 64.2513 76.3812 64.0695 76.4477 63.8993C76.5142 63.729 76.6141 63.5738 76.7416 63.4429C76.8691 63.3119 77.0215 63.2078 77.1899 63.1367C77.3582 63.0656 77.5391 63.029 77.7219 63.029C77.9047 63.029 78.0856 63.0656 78.2539 63.1367C78.4223 63.2078 78.5747 63.3119 78.7022 63.4429C78.8297 63.5738 78.9296 63.729 78.9961 63.8993C79.0626 64.0695 79.0943 64.2513 79.0894 64.434Z" fill="black"/>
</svg>
