<svg width="28" height="28" viewBox="0 0 28 28" fill="none" xmlns="http://www.w3.org/2000/svg">
<path d="M11.823 12.292L13.7025 10.57C14.2164 10.0983 14.5776 9.48368 14.7398 8.80517C14.9019 8.12665 14.8576 7.41517 14.6125 6.76202L13.811 4.62177C13.5115 3.82275 12.9187 3.16796 12.1533 2.79079C11.3879 2.41361 10.5075 2.34244 9.69148 2.59177C6.68848 3.51052 4.38023 6.30177 5.09073 9.61627C5.55798 11.7968 6.45223 14.5338 8.14623 17.4458C9.84373 20.3648 11.7827 22.5208 13.4452 24.0363C15.9547 26.32 19.5422 25.7495 21.8505 23.597C22.4689 23.0199 22.844 22.2288 22.8996 21.3848C22.9552 20.5408 22.6871 19.7073 22.1497 19.054L20.6797 17.269C20.2364 16.7292 19.6416 16.3345 18.9721 16.1355C18.3025 15.9365 17.5887 15.9424 16.9225 16.1525L14.4935 16.9173C13.8658 16.2702 13.3161 15.5519 12.8555 14.777C12.411 13.9934 12.0643 13.1583 11.823 12.2903" fill="#2F2874"/>
</svg>
