<svg width="19" height="20" viewBox="0 0 19 20" fill="none" xmlns="http://www.w3.org/2000/svg">
<path d="M3.95825 12.3241H3.16659C2.74666 12.3241 2.34393 12.1573 2.047 11.8604C1.75007 11.5635 1.58325 11.1607 1.58325 10.7408V3.6158C1.58325 3.19588 1.75007 2.79315 2.047 2.49622C2.34393 2.19929 2.74666 2.03247 3.16659 2.03247H10.2916C10.7115 2.03247 11.1142 2.19929 11.4112 2.49622C11.7081 2.79315 11.8749 3.19588 11.8749 3.6158V4.40747M8.70825 7.57414H15.8333C16.7077 7.57414 17.4166 8.28302 17.4166 9.15747V16.2825C17.4166 17.1569 16.7077 17.8658 15.8333 17.8658H8.70825C7.8338 17.8658 7.12492 17.1569 7.12492 16.2825V9.15747C7.12492 8.28302 7.8338 7.57414 8.70825 7.57414Z" stroke="#757575" stroke-width="1.58333" stroke-linecap="round" stroke-linejoin="round"/>
</svg>
