<svg width="298" height="101" viewBox="0 0 298 101" fill="none" xmlns="http://www.w3.org/2000/svg">
<path d="M57.132 0.486807C57.3192 8.8204 52.6905 16.9795 44.2573 21.4841C39.3841 24.0872 34.4183 26.5161 29.5121 29.0578C26.6777 30.5261 23.8941 32.1673 22.1475 34.9188C20.1571 38.0548 16.8496 38.881 13.4821 40.8153C15.2543 33.6495 18.6066 28.4 24.6306 25.1629C30.7124 21.8947 36.9649 18.9368 42.9776 15.5497C48.6168 12.3728 51.6795 6.24552 51.2833 0.0144854C50.9049 0.0060761 50.5261 0 50.1458 0C23.645 0 1.94333 20.5518 0.083341 46.5965C2.88172 46.7385 5.57132 45.8392 8.18645 44.8212C13.3355 42.817 18.439 40.6934 23.6121 38.7544C30.7425 36.0819 38.0165 36.7555 43.7783 39.9931L35.916 43.0809C33.0927 42.4883 30.098 42.6308 27.2167 43.6376C20.7026 45.9139 14.3516 48.6542 7.88089 51.0611C5.22514 52.049 2.61374 52.4559 0 52.3608C0.236 58.0104 1.40269 63.419 3.35395 68.4363C4.85445 68.6381 6.36032 69.01 7.88113 69.5755C14.3519 71.9824 20.7026 74.7227 27.217 76.999C30.2096 78.0448 33.324 78.1558 36.2422 77.4814L43.7888 80.6377C38.0253 83.8802 30.7472 84.5564 23.6126 81.8822C18.4395 79.9432 13.336 77.8196 8.18692 75.8154C7.66077 75.6106 7.13134 75.4111 6.59889 75.2235C15.2606 90.3025 31.5184 100.457 50.1465 100.457C77.8679 100.457 100.341 77.9687 100.341 50.2284C100.341 24.8606 81.5466 3.88929 57.1327 0.486572L57.132 0.486807ZM83.7948 67.1803C80.1714 80.2945 66.4359 86.8419 53.204 81.8825C48.0309 79.9435 42.9274 77.8199 37.7784 75.8157C34.8037 74.6578 31.7332 73.6522 28.5156 74.1593C24.8481 74.7374 22.0425 72.7995 18.3662 71.5494C24.9111 68.1438 31.0637 67.1917 37.4728 69.5758C43.9435 71.9827 50.2943 74.7229 56.8087 76.9993C63.9407 79.4914 71.7698 76.6933 75.9662 70.5356C78.0654 67.455 79.0493 63.8638 78.9375 60.3186C79.0493 56.7733 78.0654 53.1819 75.9662 50.1015C71.77 43.9438 63.9407 41.1456 56.8087 43.6378C50.2945 45.9142 43.9435 48.6544 37.4728 51.0613C31.0637 53.4454 24.9114 52.493 18.3662 49.0877C22.0425 47.8376 24.8481 45.8999 28.5156 46.4778C31.7332 46.9849 34.8037 45.9793 37.7784 44.8214C42.9274 42.8172 48.0309 40.6936 53.204 38.7546C66.4359 33.7952 80.1714 40.3426 83.7948 53.4568C84.4472 55.8187 84.7637 58.1088 84.7642 60.3186C84.7637 62.5286 84.4472 64.8184 83.7948 67.1803ZM46.3738 50.1013C46.2916 49.9805 46.2055 49.8635 46.1205 49.7455L51.654 47.5722C52.7418 49.3447 53.6097 51.3108 54.2026 53.4566C54.8551 55.8184 55.1716 58.1085 55.1721 60.3183C55.1716 62.5283 54.8551 64.8182 54.2026 67.18C53.5992 69.3643 52.7098 71.3616 51.5943 73.1588L46.1324 70.8745C46.2134 70.7619 46.2954 70.6505 46.3738 70.5353C48.473 67.4547 49.457 63.8635 49.3451 60.3183C49.457 56.7731 48.473 53.1816 46.3738 50.1013Z" fill="#A0C417"/>
<path d="M149.012 77.7717H121.525V22.1392C121.525 14.0738 120.802 9.00676 115.738 7.24899V5.49121H145.912C162.859 5.49121 168.956 15.5214 168.956 24.1042C168.956 30.7223 165.96 36.5128 160.173 38.7877C169.886 41.2696 174.226 47.6808 174.226 57.0907C174.226 67.1211 165.443 77.7717 149.012 77.7717ZM143.536 15.6246H136.095V35.4787H143.536C152.009 35.4787 154.696 30.3084 154.696 25.5518C154.696 20.7952 152.009 15.6249 143.536 15.6249V15.6246ZM145.396 45.3021H136.095V67.6378H145.396C155.523 67.6378 158.829 61.8471 158.829 56.4698C158.829 51.0926 155.523 45.3019 145.396 45.3019V45.3021Z" fill="white"/>
<path d="M231.58 16.4522H210.293V77.7719H195.723V16.4522H174.436V5.49121H231.58V16.4522H231.58Z" fill="white"/>
<path d="M297.197 73.6355C291.203 77.4615 284.073 79.426 274.049 79.426C250.075 79.426 233.025 63.8118 233.025 41.5796C233.025 19.3473 250.076 3.83643 274.049 3.83643C284.073 3.83643 291.203 5.80116 297.197 9.62715V23.5868C290.17 17.7961 283.453 15.3144 274.049 15.3144C259.066 15.3144 248.939 26.5854 248.939 41.5796C248.939 56.5738 259.066 67.948 274.049 67.948C283.453 67.948 290.17 65.4661 297.197 59.6754V73.6355Z" fill="white"/>
<path d="M121.584 87.4648H123.073V95.37H121.584V87.4648ZM122.236 93.9346H124.757C125.097 93.9346 125.361 93.8521 125.547 93.6872C125.734 93.5223 125.827 93.2913 125.827 92.9939V92.9776C125.827 92.7783 125.786 92.608 125.702 92.4665C125.619 92.3249 125.497 92.2175 125.335 92.1429C125.174 92.0687 124.981 92.0313 124.757 92.0313H122.236V90.5959H124.757C125.065 90.5959 125.303 90.5181 125.471 90.362C125.64 90.2062 125.724 89.9871 125.724 89.7045C125.724 89.4508 125.64 89.253 125.471 89.1119C125.303 88.9705 125.065 88.8998 124.757 88.8998H122.236V87.4644H124.806C125.317 87.4644 125.753 87.5487 126.115 87.7171C126.477 87.8857 126.753 88.1306 126.941 88.4513C127.129 88.772 127.223 89.1572 127.223 89.6066C127.223 89.9145 127.163 90.1873 127.041 90.4249C126.92 90.6622 126.744 90.857 126.512 91.0093C126.28 91.1614 126.001 91.2649 125.675 91.3191C126.023 91.3662 126.321 91.4723 126.569 91.637C126.817 91.8021 127.005 92.0168 127.134 92.2815C127.262 92.5461 127.327 92.8521 127.327 93.2002V93.2165C127.327 93.6695 127.232 94.0575 127.042 94.3798C126.852 94.7026 126.575 94.9481 126.21 95.1166C125.846 95.285 125.409 95.3693 124.898 95.3693H122.236V93.9339L122.236 93.9346Z" fill="white"/>
<path d="M129.879 87.4648H131.368V95.37H129.879V87.4648ZM130.417 87.4648H135.171V88.9003H130.417V87.4648ZM130.417 90.7269H134.573V92.1624H130.417V90.7269ZM130.417 93.9346H135.171V95.37H130.417V93.9346Z" fill="white"/>
<path d="M137.641 87.4648H139.461L142.4 93.5216L142.27 93.6627V87.4648H143.693V95.3644H141.862L138.934 89.4004L139.064 89.2591V95.3647H137.641V87.4651V87.4648Z" fill="white"/>
<path d="M147.979 95.37H146.436V87.4648H147.979V95.37Z" fill="white"/>
<path d="M150.723 87.4648H152.543L155.482 93.5216L155.352 93.6627V87.4648H156.775V95.3644H154.944L152.016 89.4004L152.146 89.2591V95.3647H150.723V87.4651V87.4648Z" fill="white"/>
<path d="M162.641 87.4648H168.432V88.9003H162.641V87.4648ZM164.792 88.1119H166.281V95.37H164.792V88.1119Z" fill="white"/>
<path d="M170.414 87.4648H171.903V95.37H170.414V87.4648ZM170.952 87.4648H175.706V88.9003H170.952V87.4648ZM170.952 90.7269H175.108V92.1624H170.952V90.7269ZM170.952 93.9346H175.706V95.37H170.952V93.9346Z" fill="white"/>
<path d="M180.155 90.5041L181.932 87.4648H183.502L180.889 91.9339L178.879 95.37H177.309L180.155 90.5041ZM180.139 92.135L179.987 91.8795L177.374 87.4648H178.944L180.715 90.4604L180.922 90.8141L183.622 95.37H182.052L180.139 92.135Z" fill="white"/>
<path d="M184.949 87.4648H190.741V88.9003H184.949V87.4648ZM187.101 88.1119H188.59V95.37H187.101V88.1119Z" fill="white"/>
<path d="M194.158 95.37H192.615V87.4648H194.158V95.37Z" fill="white"/>
<path d="M196.902 87.4648H198.391V95.37H196.902V87.4648ZM197.565 93.9346H202.194V95.37H197.565V93.9346Z" fill="white"/>
<path d="M204.393 87.4648H205.881V95.37H204.393V87.4648ZM204.931 87.4648H209.684V88.9003H204.931V87.4648ZM204.931 90.7269H209.087V92.1624H204.931V90.7269ZM204.931 93.9346H209.684V95.37H204.931V93.9346Z" fill="white"/>
<path d="M217.408 95.1065C216.981 94.8764 216.655 94.541 216.431 94.1007C216.206 93.6601 216.094 93.1285 216.094 92.505V90.3357C216.094 89.7124 216.206 89.1806 216.431 88.74C216.655 88.2997 216.981 87.9636 217.408 87.7316C217.836 87.4996 218.35 87.3838 218.951 87.3838C219.447 87.3838 219.891 87.4908 220.282 87.7045C220.674 87.9185 220.997 88.2291 221.252 88.6368C221.508 89.0446 221.684 89.5368 221.782 90.1128H220.239C220.181 89.8519 220.091 89.6291 219.97 89.4443C219.849 89.2593 219.702 89.1182 219.53 89.0203C219.358 88.9224 219.165 88.8734 218.951 88.8734C218.672 88.8734 218.435 88.9304 218.24 89.0446C218.044 89.1586 217.894 89.3254 217.791 89.5447C217.688 89.7641 217.637 90.0278 217.637 90.3359V92.5053C217.637 92.8131 217.688 93.0759 217.791 93.2936C217.894 93.5111 218.044 93.6769 218.24 93.7909C218.435 93.9052 218.672 93.9622 218.951 93.9622C219.169 93.9622 219.364 93.9143 219.538 93.8183C219.712 93.7223 219.859 93.5816 219.978 93.3966C220.098 93.2119 220.185 92.9872 220.239 92.7225H221.782C221.68 93.2988 221.502 93.7907 221.247 94.1986C220.991 94.6062 220.669 94.9171 220.28 95.1308C219.89 95.3448 219.447 95.4518 218.951 95.4518C218.35 95.4518 217.836 95.3369 217.408 95.1065Z" fill="white"/>
<path d="M225.245 95.0902C224.808 94.8491 224.471 94.5083 224.232 94.068C223.993 93.6274 223.873 93.1175 223.873 92.5375V90.2974C223.873 89.7176 223.993 89.2074 224.232 88.7669C224.471 88.3265 224.808 87.9857 225.245 87.7449C225.681 87.5038 226.186 87.3833 226.758 87.3833C227.33 87.3833 227.835 87.5038 228.271 87.7449C228.707 87.9857 229.045 88.3265 229.284 88.7669C229.523 89.2074 229.643 89.7173 229.643 90.2974V92.5375C229.643 93.1173 229.523 93.6274 229.284 94.068C229.045 94.5083 228.707 94.8491 228.271 95.0902C227.835 95.331 227.33 95.4518 226.758 95.4518C226.186 95.4518 225.681 95.331 225.245 95.0902ZM227.464 93.7907C227.667 93.6767 227.824 93.5144 227.935 93.3041C228.045 93.0941 228.1 92.8512 228.1 92.5758V90.2597C228.1 89.9841 228.045 89.7414 227.935 89.5312C227.824 89.3212 227.667 89.1586 227.464 89.0446C227.262 88.9304 227.026 88.8734 226.758 88.8734C226.49 88.8734 226.255 88.9304 226.052 89.0446C225.849 89.1586 225.692 89.3212 225.582 89.5312C225.471 89.7414 225.416 89.9841 225.416 90.2597V92.5758C225.416 92.8512 225.471 93.0941 225.582 93.3041C225.692 93.5144 225.849 93.6767 226.052 93.7907C226.255 93.9049 226.49 93.9619 226.758 93.9619C227.026 93.9619 227.262 93.9049 227.464 93.7907Z" fill="white"/>
<path d="M232.221 87.4595H233.71V95.37H232.221V87.4595ZM232.813 90.754H235.562C235.714 90.754 235.848 90.7162 235.964 90.6401C236.08 90.5639 236.17 90.4553 236.233 90.314C236.296 90.1726 236.33 90.0094 236.334 89.8246C236.334 89.6398 236.302 89.4768 236.239 89.3352C236.175 89.1937 236.086 89.0853 235.97 89.0091C235.854 88.933 235.718 88.8949 235.562 88.8949H232.813V87.4595H235.682C236.116 87.4595 236.499 87.5574 236.828 87.7531C237.158 87.9488 237.413 88.2252 237.594 88.5823C237.775 88.9393 237.866 89.3537 237.866 89.8246C237.866 90.2955 237.775 90.7099 237.594 91.0668C237.413 91.4238 237.157 91.7001 236.825 91.8958C236.494 92.0916 236.113 92.1895 235.682 92.1895H232.813L232.813 90.754ZM234.475 91.9449L236.067 91.6949L238.197 95.37H236.393L234.475 91.9449Z" fill="white"/>
<path d="M240.588 87.4646H242.077V95.3698H240.588V87.4646ZM241.267 90.868H243.793C243.971 90.868 244.128 90.8271 244.264 90.7458C244.399 90.6641 244.505 90.5491 244.581 90.4004C244.657 90.2518 244.695 90.0815 244.695 89.8893C244.695 89.6935 244.658 89.5204 244.584 89.37C244.51 89.2196 244.404 89.1035 244.268 89.0219C244.133 88.9404 243.974 88.8998 243.793 88.8998H241.267V87.4644H243.755C244.248 87.4644 244.682 87.565 245.056 87.7662C245.431 87.9673 245.722 88.2509 245.928 88.6171C246.135 88.9832 246.238 89.4074 246.238 89.8893C246.238 90.3712 246.135 90.7944 245.928 91.1588C245.722 91.5232 245.431 91.8049 245.056 92.0042C244.682 92.2037 244.248 92.3032 243.755 92.3032H241.267V90.8678L241.267 90.868Z" fill="white"/>
<path d="M249.727 95.0902C249.291 94.8491 248.953 94.5083 248.714 94.068C248.475 93.6274 248.355 93.1175 248.355 92.5375V90.2974C248.355 89.7176 248.475 89.2074 248.714 88.7669C248.953 88.3265 249.291 87.9857 249.727 87.7449C250.164 87.5038 250.668 87.3833 251.24 87.3833C251.813 87.3833 252.317 87.5038 252.753 87.7449C253.19 87.9857 253.528 88.3265 253.767 88.7669C254.006 89.2074 254.125 89.7173 254.125 90.2974V92.5375C254.125 93.1173 254.006 93.6274 253.767 94.068C253.528 94.5083 253.19 94.8491 252.753 95.0902C252.317 95.331 251.813 95.4518 251.24 95.4518C250.668 95.4518 250.164 95.331 249.727 95.0902ZM251.947 93.7907C252.15 93.6767 252.306 93.5144 252.417 93.3041C252.527 93.0941 252.583 92.8512 252.583 92.5758V90.2597C252.583 89.9841 252.527 89.7414 252.417 89.5312C252.306 89.3212 252.15 89.1586 251.947 89.0446C251.744 88.9304 251.509 88.8734 251.241 88.8734C250.973 88.8734 250.737 88.9304 250.535 89.0446C250.332 89.1586 250.175 89.3212 250.064 89.5312C249.954 89.7414 249.899 89.9841 249.899 90.2597V92.5758C249.899 92.8512 249.954 93.0941 250.064 93.3041C250.175 93.5144 250.332 93.6767 250.535 93.7907C250.737 93.9049 250.973 93.9619 251.241 93.9619C251.509 93.9619 251.744 93.9049 251.947 93.7907Z" fill="white"/>
<path d="M256.705 87.4595H258.194V95.37H256.705V87.4595ZM257.297 90.754H260.046C260.198 90.754 260.333 90.7162 260.449 90.6401C260.564 90.5639 260.654 90.4553 260.717 90.314C260.781 90.1726 260.814 90.0094 260.818 89.8246C260.818 89.6398 260.786 89.4768 260.723 89.3352C260.66 89.1937 260.57 89.0853 260.454 89.0091C260.338 88.933 260.202 88.8949 260.047 88.8949H257.298V87.4595H260.166C260.601 87.4595 260.983 87.5574 261.313 87.7531C261.642 87.9488 261.898 88.2252 262.079 88.5823C262.26 88.9393 262.35 89.3537 262.35 89.8246C262.35 90.2955 262.26 90.7099 262.079 91.0668C261.898 91.4238 261.641 91.7001 261.31 91.8958C260.978 92.0916 260.597 92.1895 260.166 92.1895H257.298L257.297 90.754ZM258.96 91.9449L260.552 91.6949L262.681 95.37H260.877L258.96 91.9449Z" fill="white"/>
<path d="M267.06 87.4648H268.005L271.026 95.37H269.423L267.533 89.9713L265.642 95.37H264.039L267.06 87.4648ZM265.49 92.6679H269.646V94.1033H265.49V92.6679Z" fill="white"/>
<path d="M271.812 87.4648H277.604V88.9003H271.812V87.4648ZM273.964 88.1119H275.453V95.37H273.964V88.1119Z" fill="white"/>
<path d="M281.021 95.37H279.479V87.4648H281.021V95.37Z" fill="white"/>
<path d="M284.973 95.0902C284.537 94.8491 284.199 94.5083 283.96 94.068C283.721 93.6274 283.602 93.1175 283.602 92.5375V90.2974C283.602 89.7176 283.721 89.2074 283.96 88.7669C284.199 88.3265 284.537 87.9857 284.973 87.7449C285.41 87.5038 285.914 87.3833 286.487 87.3833C287.059 87.3833 287.563 87.5038 287.999 87.7449C288.436 87.9857 288.774 88.3265 289.013 88.7669C289.252 89.2074 289.371 89.7173 289.371 90.2974V92.5375C289.371 93.1173 289.252 93.6274 289.013 94.068C288.774 94.5083 288.436 94.8491 287.999 95.0902C287.563 95.331 287.059 95.4518 286.487 95.4518C285.914 95.4518 285.41 95.331 284.973 95.0902ZM287.193 93.7907C287.396 93.6767 287.552 93.5144 287.663 93.3041C287.773 93.0941 287.829 92.8512 287.829 92.5758V90.2597C287.829 89.9841 287.773 89.7414 287.663 89.5312C287.552 89.3212 287.396 89.1586 287.193 89.0446C286.99 88.9304 286.755 88.8734 286.487 88.8734C286.219 88.8734 285.983 88.9304 285.781 89.0446C285.578 89.1586 285.421 89.3212 285.311 89.5312C285.2 89.7414 285.145 89.9841 285.145 90.2597V92.5758C285.145 92.8512 285.2 93.0941 285.311 93.3041C285.421 93.5144 285.578 93.6767 285.781 93.7907C285.983 93.9049 286.219 93.9619 286.487 93.9619C286.755 93.9619 286.99 93.9049 287.193 93.7907Z" fill="white"/>
<path d="M291.947 87.4648H293.768L296.707 93.5216L296.576 93.6627V87.4648H298V95.3644H296.169L293.24 89.4004L293.371 89.2591V95.3647H291.947V87.4651V87.4648Z" fill="white"/>
</svg>
