<svg width="166" height="56" viewBox="0 0 166 56" fill="none" xmlns="http://www.w3.org/2000/svg">
<path d="M31.8374 0.270965C31.9417 4.90958 29.3623 9.45107 24.6628 11.9584C21.9472 13.4073 19.18 14.7593 16.4459 16.174C14.8664 16.9913 13.3152 17.9049 12.3419 19.4364C11.2327 21.1819 9.3896 21.6418 7.51303 22.7185C8.50062 18.7299 10.3687 15.8079 13.7256 14.0061C17.1148 12.187 20.599 10.5405 23.9497 8.65521C27.0922 6.88693 28.7989 3.47636 28.5782 0.0080628C28.3673 0.00338206 28.1562 0 27.9443 0C13.1764 0 1.08294 11.4395 0.0464426 25.9364C1.60587 26.0154 3.10467 25.5148 4.56199 24.9482C7.43134 23.8326 10.2753 22.6506 13.1581 21.5713C17.1316 20.0838 21.1851 20.4587 24.3959 22.2608L20.0146 23.9796C18.4412 23.6497 16.7724 23.729 15.1668 24.2894C11.5367 25.5564 7.99759 27.0817 4.39171 28.4215C2.91176 28.9713 1.45653 29.1978 0 29.1449C0.131513 32.2896 0.781666 35.3001 1.86902 38.0928C2.70519 38.2051 3.54435 38.4121 4.39184 38.7269C7.99772 40.0666 11.5367 41.5919 15.1669 42.8589C16.8346 43.441 18.5702 43.5028 20.1963 43.1274L24.4017 44.8843C21.19 46.6891 17.1342 47.0655 13.1583 45.577C10.2756 44.4977 7.4316 43.3157 4.56225 42.2001C4.26904 42.0861 3.97401 41.9751 3.6773 41.8706C8.50413 50.2639 17.564 55.9159 27.9447 55.9159C43.3927 55.9159 55.9159 43.3987 55.9159 27.9579C55.9159 13.8378 45.4427 2.16484 31.8378 0.270834L31.8374 0.270965ZM46.6955 37.3937C44.6764 44.6933 37.0221 48.3376 29.6485 45.5771C26.7657 44.4978 23.9217 43.3158 21.0524 42.2003C19.3947 41.5557 17.6836 40.996 15.8906 41.2783C13.8469 41.6001 12.2834 40.5214 10.2347 39.8256C13.882 37.93 17.3106 37.4 20.8821 38.727C24.488 40.0667 28.027 41.592 31.6572 42.8591C35.6316 44.2463 39.9944 42.6887 42.3329 39.2613C43.5028 37.5466 44.051 35.5476 43.9887 33.5743C44.051 31.601 43.5028 29.6019 42.3329 27.8873C39.9946 24.4599 35.6316 22.9023 31.6572 24.2895C28.0271 25.5566 24.488 27.0819 20.8821 28.4216C17.3106 29.7486 13.8821 29.2185 10.2347 27.323C12.2834 26.6272 13.8469 25.5486 15.8906 25.8703C17.6836 26.1526 19.3947 25.5929 21.0524 24.9483C23.9217 23.8328 26.7657 22.6508 29.6485 21.5715C37.0221 18.811 44.6764 22.4553 46.6955 29.7549C47.0591 31.0696 47.2355 32.3443 47.2357 33.5743C47.2355 34.8044 47.0591 36.079 46.6955 37.3937ZM25.8423 27.8872C25.7965 27.82 25.7485 27.7548 25.7011 27.6892L28.7847 26.4795C29.3909 27.4661 29.8746 28.5604 30.205 29.7548C30.5686 31.0694 30.7449 32.3442 30.7452 33.5742C30.7449 34.8043 30.5686 36.0789 30.205 37.3935C29.8687 38.6093 29.3731 39.721 28.7514 40.7214L25.7078 39.4499C25.7529 39.3873 25.7986 39.3252 25.8423 39.2611C27.0121 37.5464 27.5604 35.5475 27.4981 33.5742C27.5604 31.6008 27.0121 29.6018 25.8423 27.8872Z" fill="#A0C417"/>
<path d="M83.0131 43.2891H67.7027V12.3231C67.7027 7.83369 67.2999 5.01328 64.4795 4.03487V3.05646H81.2864C90.7258 3.05646 94.1218 8.63943 94.1218 13.4168C94.1218 17.1005 92.4527 20.3236 89.2294 21.5899C94.6398 22.9714 97.0572 26.5399 97.0572 31.7777C97.0572 37.3608 92.1647 43.2891 83.0131 43.2891ZM79.9625 8.6969H75.8184V19.748H79.9625C84.6822 19.748 86.1788 16.8701 86.1788 14.2225C86.1788 11.5749 84.6823 8.69703 79.9625 8.69703V8.6969ZM80.9985 25.2159H75.8184V37.6484H80.9985C86.6392 37.6484 88.4811 34.4252 88.4811 31.4321C88.4811 28.439 86.6392 25.2158 80.9985 25.2158V25.2159Z" fill="#2F2874"/>
<path d="M129.001 9.15743H117.144V43.2891H109.029V9.15743H97.1719V3.05633H129.001V9.15743H129.001Z" fill="#2F2874"/>
<path d="M165.55 40.9868C162.211 43.1164 158.24 44.2099 152.657 44.2099C139.303 44.2099 129.807 35.5188 129.807 23.1439C129.807 10.769 139.304 2.13539 152.657 2.13539C158.24 2.13539 162.211 3.229 165.55 5.35861V13.1288C161.636 9.90557 157.895 8.52423 152.657 8.52423C144.311 8.52423 138.671 14.7979 138.671 23.1439C138.671 31.49 144.311 37.8211 152.657 37.8211C157.895 37.8211 161.636 36.4396 165.55 33.2164V40.9868Z" fill="#2F2874"/>
<path d="M67.7344 48.6842H68.5635V53.0844H67.7344V48.6842ZM68.0975 52.2854H69.5016C69.6912 52.2854 69.838 52.2395 69.942 52.1477C70.0459 52.0559 70.0978 51.9273 70.0978 51.7618V51.7527C70.0978 51.6418 70.0746 51.547 70.0282 51.4682C69.9818 51.3894 69.9137 51.3296 69.8239 51.2882C69.7341 51.2468 69.6267 51.226 69.5016 51.226H68.0975V50.427H69.5016C69.6731 50.427 69.8057 50.3837 69.8996 50.2969C69.9935 50.2101 70.0404 50.0882 70.0404 49.9309C70.0404 49.7897 69.9935 49.6795 69.8996 49.601C69.8059 49.5223 69.6731 49.4829 69.5016 49.4829H68.0975V48.684H69.5289C69.8134 48.684 70.0566 48.7309 70.2582 48.8246C70.4599 48.9185 70.6133 49.0548 70.7182 49.2333C70.8232 49.4118 70.8756 49.6262 70.8756 49.8764C70.8756 50.0478 70.8418 50.1996 70.7741 50.3318C70.7065 50.4639 70.6082 50.5724 70.4791 50.6572C70.3499 50.7418 70.1946 50.7994 70.0131 50.8296C70.2069 50.8558 70.3728 50.9149 70.511 51.0065C70.6491 51.0985 70.7541 51.2179 70.8256 51.3653C70.8971 51.5126 70.9332 51.6829 70.9332 51.8766V51.8857C70.9332 52.1378 70.8801 52.3538 70.7743 52.5332C70.6684 52.7129 70.5141 52.8496 70.3113 52.9433C70.1084 53.0371 69.8649 53.084 69.5804 53.084H68.0977V52.285L68.0975 52.2854Z" fill="#2F2874"/>
<path d="M72.3545 48.6842H73.1836V53.0844H72.3545V48.6842ZM72.6541 48.6842H75.3019V49.4832H72.6541V48.6842ZM72.6541 50.5H74.9691V51.299H72.6541V50.5ZM72.6541 52.2854H75.3019V53.0844H72.6541V52.2854Z" fill="#2F2874"/>
<path d="M76.6787 48.6842H77.6925L79.3297 52.0555L79.257 52.1341V48.6842H80.0499V53.0813H79.03L77.3989 49.7616L77.4716 49.6829V53.0814H76.6787V48.6844V48.6842Z" fill="#2F2874"/>
<path d="M82.4366 53.0844H81.5771V48.6842H82.4366V53.0844Z" fill="#2F2874"/>
<path d="M83.9648 48.6842H84.9786L86.6158 52.0555L86.5432 52.1341V48.6842H87.3362V53.0813H86.3163L84.685 49.7616L84.7577 49.6829V53.0814H83.9648V48.6844V48.6842Z" fill="#2F2874"/>
<path d="M90.6025 48.6842H93.8285V49.4832H90.6025V48.6842ZM91.8009 49.0444H92.6301V53.0844H91.8009V49.0444Z" fill="#2F2874"/>
<path d="M94.9326 48.6842H95.7618V53.0844H94.9326V48.6842ZM95.2322 48.6842H97.8801V49.4832H95.2322V48.6842ZM95.2322 50.5H97.5473V51.299H95.2322V50.5ZM95.2322 52.2854H97.8801V53.0844H95.2322V52.2854Z" fill="#2F2874"/>
<path d="M100.358 50.3759L101.348 48.6842H102.222L100.767 51.1718L99.6471 53.0844H98.7725L100.358 50.3759ZM100.349 51.2837L100.264 51.1415L98.8089 48.6842H99.6835L100.67 50.3516L100.785 50.5485L102.289 53.0844H101.414L100.349 51.2837Z" fill="#2F2874"/>
<path d="M103.029 48.6842H106.255V49.4832H103.029V48.6842ZM104.228 49.0444H105.057V53.0844H104.228V49.0444Z" fill="#2F2874"/>
<path d="M108.158 53.0844H107.299V48.6842H108.158V53.0844Z" fill="#2F2874"/>
<path d="M109.687 48.6842H110.516V53.0844H109.687V48.6842ZM110.056 52.2854H112.634V53.0844H110.056V52.2854Z" fill="#2F2874"/>
<path d="M113.858 48.6842H114.688V53.0844H113.858V48.6842ZM114.158 48.6842H116.806V49.4832H114.158V48.6842ZM114.158 50.5H116.473V51.299H114.158V50.5ZM114.158 52.2854H116.806V53.0844H114.158V52.2854Z" fill="#2F2874"/>
<path d="M121.108 52.9376C120.87 52.8095 120.689 52.6228 120.564 52.3777C120.439 52.1325 120.376 51.8366 120.376 51.4896V50.282C120.376 49.9352 120.439 49.6391 120.564 49.3939C120.689 49.1488 120.87 48.9617 121.108 48.8326C121.346 48.7035 121.633 48.639 121.968 48.639C122.244 48.639 122.491 48.6985 122.709 48.8175C122.927 48.9366 123.107 49.1095 123.249 49.3364C123.391 49.5634 123.49 49.8374 123.544 50.158H122.685C122.653 50.0128 122.603 49.8887 122.535 49.7859C122.467 49.6829 122.386 49.6044 122.29 49.5499C122.194 49.4954 122.087 49.4681 121.968 49.4681C121.812 49.4681 121.68 49.4998 121.571 49.5634C121.462 49.6269 121.379 49.7197 121.321 49.8418C121.264 49.9639 121.235 50.1107 121.235 50.2822V51.4897C121.235 51.6611 121.264 51.8073 121.321 51.9285C121.379 52.0496 121.462 52.1419 121.571 52.2053C121.68 52.2689 121.812 52.3006 121.968 52.3006C122.089 52.3006 122.198 52.274 122.295 52.2205C122.391 52.1671 122.473 52.0888 122.54 51.9858C122.606 51.883 122.655 51.7579 122.685 51.6106H123.544C123.488 51.9314 123.389 52.2052 123.246 52.4322C123.104 52.6591 122.924 52.8322 122.708 52.9511C122.491 53.0702 122.244 53.1298 121.968 53.1298C121.633 53.1298 121.346 53.0658 121.108 52.9376Z" fill="#2F2874"/>
<path d="M125.473 52.9286C125.23 52.7944 125.042 52.6047 124.909 52.3597C124.776 52.1144 124.709 51.8306 124.709 51.5078V50.2609C124.709 49.9381 124.776 49.6542 124.909 49.409C125.042 49.1639 125.23 48.9742 125.473 48.8401C125.716 48.7059 125.997 48.6388 126.316 48.6388C126.635 48.6388 126.916 48.7059 127.159 48.8401C127.402 48.9742 127.59 49.1639 127.723 49.409C127.856 49.6542 127.923 49.938 127.923 50.2609V51.5078C127.923 51.8305 127.856 52.1144 127.723 52.3597C127.59 52.6047 127.402 52.7944 127.159 52.9286C126.916 53.0627 126.635 53.1299 126.316 53.1299C125.997 53.1299 125.716 53.0627 125.473 52.9286ZM126.709 52.2053C126.822 52.1419 126.91 52.0515 126.971 51.9345C127.033 51.8176 127.064 51.6824 127.064 51.5291V50.2399C127.064 50.0865 127.033 49.9514 126.971 49.8344C126.91 49.7175 126.822 49.627 126.709 49.5635C126.596 49.5 126.465 49.4682 126.316 49.4682C126.167 49.4682 126.036 49.5 125.923 49.5635C125.81 49.627 125.722 49.7175 125.661 49.8344C125.599 49.9514 125.569 50.0865 125.569 50.2399V51.5291C125.569 51.6824 125.599 51.8176 125.661 51.9345C125.722 52.0515 125.81 52.1419 125.923 52.2053C126.036 52.2689 126.167 52.3006 126.316 52.3006C126.465 52.3006 126.596 52.2689 126.709 52.2053Z" fill="#2F2874"/>
<path d="M129.359 48.6812H130.189V53.0844H129.359V48.6812ZM129.689 50.515H131.22C131.305 50.515 131.38 50.494 131.445 50.4516C131.509 50.4092 131.559 50.3487 131.594 50.2701C131.629 50.1914 131.648 50.1005 131.65 49.9977C131.65 49.8948 131.633 49.8041 131.597 49.7253C131.562 49.6465 131.512 49.5862 131.448 49.5438C131.383 49.5014 131.307 49.4802 131.221 49.4802H129.689V48.6812H131.287C131.529 48.6812 131.742 48.7357 131.926 48.8447C132.109 48.9536 132.252 49.1074 132.352 49.3062C132.453 49.5049 132.504 49.7356 132.504 49.9977C132.504 50.2598 132.453 50.4905 132.352 50.6891C132.252 50.8878 132.109 51.0416 131.924 51.1506C131.74 51.2595 131.527 51.314 131.287 51.314H129.689L129.689 50.515ZM130.615 51.1779L131.502 51.0388L132.688 53.0844H131.683L130.615 51.1779Z" fill="#2F2874"/>
<path d="M134.02 48.6842H134.849V53.0844H134.02V48.6842ZM134.398 50.5786H135.805C135.904 50.5786 135.991 50.5559 136.067 50.5106C136.142 50.4651 136.201 50.4011 136.244 50.3183C136.286 50.2356 136.307 50.1408 136.307 50.0338C136.307 49.9249 136.287 49.8285 136.245 49.7448C136.204 49.6611 136.145 49.5964 136.07 49.5511C135.994 49.5057 135.906 49.4831 135.805 49.4831H134.398V48.6841H135.784C136.058 48.6841 136.3 48.7401 136.508 48.8521C136.717 48.964 136.879 49.1219 136.994 49.3257C137.109 49.5295 137.167 49.7656 137.167 50.0338C137.167 50.3021 137.109 50.5377 136.994 50.7405C136.879 50.9433 136.717 51.1001 136.508 51.211C136.3 51.3221 136.058 51.3775 135.784 51.3775H134.398V50.5785L134.398 50.5786Z" fill="#2F2874"/>
<path d="M139.111 52.9286C138.868 52.7944 138.68 52.6047 138.546 52.3597C138.413 52.1144 138.347 51.8306 138.347 51.5078V50.2609C138.347 49.9381 138.413 49.6542 138.546 49.409C138.68 49.1639 138.868 48.9742 139.111 48.8401C139.354 48.7059 139.635 48.6388 139.954 48.6388C140.272 48.6388 140.553 48.7059 140.796 48.8401C141.039 48.9742 141.228 49.1639 141.361 49.409C141.494 49.6542 141.56 49.938 141.56 50.2609V51.5078C141.56 51.8305 141.494 52.1144 141.361 52.3597C141.228 52.6047 141.039 52.7944 140.796 52.9286C140.553 53.0627 140.272 53.1299 139.954 53.1299C139.635 53.1299 139.354 53.0627 139.111 52.9286ZM140.347 52.2053C140.46 52.1419 140.547 52.0515 140.609 51.9345C140.67 51.8176 140.701 51.6824 140.701 51.5291V50.2399C140.701 50.0865 140.67 49.9514 140.609 49.8344C140.547 49.7175 140.46 49.627 140.347 49.5635C140.234 49.5 140.103 49.4682 139.954 49.4682C139.804 49.4682 139.673 49.5 139.56 49.5635C139.447 49.627 139.36 49.7175 139.299 49.8344C139.237 49.9514 139.206 50.0865 139.206 50.2399V51.5291C139.206 51.6824 139.237 51.8176 139.299 51.9345C139.36 52.0515 139.447 52.1419 139.56 52.2053C139.673 52.2689 139.804 52.3006 139.954 52.3006C140.103 52.3006 140.234 52.2689 140.347 52.2053Z" fill="#2F2874"/>
<path d="M142.997 48.6812H143.826V53.0844H142.997V48.6812ZM143.327 50.515H144.858C144.943 50.515 145.018 50.494 145.082 50.4516C145.147 50.4092 145.197 50.3487 145.232 50.2701C145.267 50.1914 145.286 50.1005 145.288 49.9977C145.288 49.8948 145.27 49.8041 145.235 49.7253C145.2 49.6465 145.15 49.5862 145.085 49.5438C145.021 49.5014 144.945 49.4802 144.858 49.4802H143.327V48.6812H144.925C145.167 48.6812 145.38 48.7357 145.563 48.8447C145.747 48.9536 145.889 49.1074 145.99 49.3062C146.091 49.5049 146.141 49.7356 146.141 49.9977C146.141 50.2598 146.091 50.4905 145.99 50.6891C145.889 50.8878 145.746 51.0416 145.562 51.1506C145.377 51.2595 145.165 51.314 144.925 51.314H143.327L143.327 50.515ZM144.253 51.1779L145.14 51.0388L146.326 53.0844H145.321L144.253 51.1779Z" fill="#2F2874"/>
<path d="M148.765 48.6842H149.291L150.974 53.0844H150.081L149.028 50.0794L147.975 53.0844H147.082L148.765 48.6842ZM147.89 51.5803H150.205V52.3793H147.89V51.5803Z" fill="#2F2874"/>
<path d="M151.412 48.6842H154.638V49.4832H151.412V48.6842ZM152.611 49.0444H153.44V53.0844H152.611V49.0444Z" fill="#2F2874"/>
<path d="M156.54 53.0844H155.681V48.6842H156.54V53.0844Z" fill="#2F2874"/>
<path d="M158.742 52.9286C158.499 52.7944 158.311 52.6047 158.177 52.3597C158.044 52.1144 157.978 51.8306 157.978 51.5078V50.2609C157.978 49.9381 158.044 49.6542 158.177 49.409C158.31 49.1639 158.499 48.9742 158.742 48.8401C158.985 48.7059 159.266 48.6388 159.584 48.6388C159.903 48.6388 160.184 48.7059 160.427 48.8401C160.67 48.9742 160.858 49.1639 160.992 49.409C161.125 49.6542 161.191 49.938 161.191 50.2609V51.5078C161.191 51.8305 161.125 52.1144 160.992 52.3597C160.859 52.6047 160.67 52.7944 160.427 52.9286C160.184 53.0627 159.903 53.1299 159.584 53.1299C159.266 53.1299 158.985 53.0627 158.742 52.9286ZM159.978 52.2053C160.091 52.1419 160.178 52.0515 160.24 51.9345C160.301 51.8176 160.332 51.6824 160.332 51.5291V50.2399C160.332 50.0865 160.301 49.9514 160.24 49.8344C160.178 49.7175 160.091 49.627 159.978 49.5635C159.865 49.5 159.734 49.4682 159.585 49.4682C159.435 49.4682 159.304 49.5 159.191 49.5635C159.078 49.627 158.991 49.7175 158.929 49.8344C158.868 49.9514 158.837 50.0865 158.837 50.2399V51.5291C158.837 51.6824 158.868 51.8176 158.929 51.9345C158.991 52.0515 159.078 52.1419 159.191 52.2053C159.304 52.2689 159.435 52.3006 159.585 52.3006C159.734 52.3006 159.865 52.2689 159.978 52.2053Z" fill="#2F2874"/>
<path d="M162.628 48.6842H163.642L165.279 52.0555L165.206 52.1341V48.6842H165.999V53.0813H164.979L163.348 49.7616L163.421 49.6829V53.0814H162.628V48.6844V48.6842Z" fill="#2F2874"/>
</svg>
