<svg width="79" height="98" viewBox="0 0 79 98" fill="none" xmlns="http://www.w3.org/2000/svg">
<path d="M77.2461 56.8333H71.5781V9.57131C71.5781 8.84865 71.0703 8.22361 70.3633 8.07521L31.9883 0.032212C31.5391 -0.061538 31.0664 0.0517431 30.711 0.340802C30.3555 0.633772 30.1485 1.06736 30.1485 1.5283V12.1693L8.7265 12.1732C7.88275 12.1732 7.1992 12.8568 7.1992 13.7005V56.8335H1.5273C0.68355 56.8335 0 57.5171 0 58.3608C0 60.8999 0.246091 63.4506 0.730471 65.9428C0.847661 66.5366 1.30469 67.0092 1.89457 67.142L9.50787 68.8647C9.89068 69.9467 10.3321 71.017 10.8321 72.0561L6.66407 78.6616C6.33985 79.1733 6.35157 79.8296 6.68751 80.3335C9.55471 84.5874 13.1641 88.1929 17.4175 91.0565C17.9214 91.3964 18.5737 91.4042 19.0855 91.0799L25.691 86.9119C26.7301 87.4119 27.7965 87.8534 28.8785 88.2361L30.6051 95.8572C30.7379 96.4471 31.2106 96.9041 31.8043 97.0213C34.2926 97.5057 36.8434 97.7518 39.3863 97.7518C41.9254 97.7518 44.4801 97.5057 46.9683 97.0213C47.5621 96.9042 48.0347 96.451 48.1675 95.8572L49.8902 88.2361C50.9722 87.8533 52.0425 87.4119 53.0816 86.9119L59.6871 91.0799C60.1988 91.4042 60.8551 91.3924 61.3551 91.0565C65.6129 88.1932 69.2184 84.5838 72.0781 80.3295C72.418 79.8256 72.4258 79.1733 72.1015 78.6615L67.9335 72.056C68.4257 71.0287 68.871 69.9622 69.2577 68.8607L76.8749 67.138C77.4648 67.0052 77.9218 66.5325 78.039 65.9388C78.5234 63.4505 78.7695 60.8997 78.7695 58.3568C78.7773 57.517 78.0898 56.8333 77.2461 56.8333ZM33.2031 3.41131L68.5191 10.8136V56.8336H60.4058V36.1966C60.4058 35.3529 59.7222 34.6693 58.8785 34.6693L43.8355 34.6654V13.7004C43.8355 12.8567 43.1519 12.1731 42.3082 12.1731H33.2027L33.2031 3.41131ZM57.3511 37.7233V56.8323H52.4527V45.7303C52.4527 44.8866 51.7691 44.203 50.9254 44.203H41.2262C40.3825 44.203 39.6989 44.8866 39.6989 45.7303V56.8323H34.7966L34.7927 37.7233H57.3511ZM49.3941 56.8323H42.7535V47.2581H49.3941V56.8323ZM60.3321 59.8909C59.543 70.7579 50.4532 79.3639 39.3871 79.3639C28.321 79.3639 19.2311 70.7623 18.4421 59.8909H60.3321ZM10.2541 15.2269H40.7811V34.6649H33.2655C32.4217 34.6649 31.7382 35.3485 31.7382 36.1922V56.8292L10.2542 56.8331L10.2541 15.2269ZM75.2191 64.3829L67.7543 66.0704C67.227 66.1876 66.8012 66.5782 66.6371 67.0899C66.1449 68.6133 65.5355 70.0743 64.8285 71.4415C64.5785 71.922 64.6019 72.5001 64.891 72.961L68.9808 79.4376C66.6292 82.7384 63.7699 85.5978 60.4652 87.9532L53.9886 83.8634C53.5316 83.5743 52.9534 83.5509 52.473 83.797C51.0707 84.5197 49.6097 85.1251 48.1214 85.6017C47.6058 85.7658 47.2152 86.1915 47.0941 86.7189L45.4066 94.1916C41.4339 94.8518 37.3363 94.8518 33.3636 94.1916L31.6722 86.7189C31.555 86.1916 31.1644 85.7658 30.6488 85.6017C29.1644 85.1251 27.7035 84.5197 26.305 83.797C25.8245 83.5509 25.2464 83.5743 24.7894 83.8634L18.3128 87.9532C15.0081 85.5977 12.1487 82.7423 9.7933 79.4376L13.8792 72.961C14.1683 72.504 14.1917 71.9258 13.9456 71.4454C13.2229 70.0431 12.6175 68.5821 12.1409 67.0977C11.9768 66.5821 11.5511 66.1915 11.0237 66.0704L3.55891 64.3829C3.31282 62.8985 3.15657 61.3946 3.09016 59.8907H15.3832C16.1722 72.4457 26.6332 82.4177 39.3872 82.4177C52.1412 82.4177 62.6022 72.445 63.3952 59.8907H75.6882C75.6217 61.3946 75.4652 62.8985 75.2191 64.3829ZM13.2071 19.8629C13.2071 19.0192 13.8907 18.3356 14.7344 18.3356H35.4494C36.2932 18.3356 36.9767 19.0192 36.9767 19.8629C36.9767 20.7066 36.2931 21.3902 35.4494 21.3902H14.7384C13.8946 21.3902 13.2071 20.7066 13.2071 19.8629ZM13.2071 25.3082C13.2071 24.4645 13.8907 23.7809 14.7344 23.7809H35.4494C36.2932 23.7809 36.9767 24.4645 36.9767 25.3082C36.9767 26.1519 36.2931 26.8355 35.4494 26.8355H14.7384C13.8946 26.8355 13.2071 26.1519 13.2071 25.3082ZM13.2071 30.7496C13.2071 29.9059 13.8907 29.2223 14.7344 29.2223H35.4494C36.2932 29.2223 36.9767 29.9059 36.9767 30.7496C36.9767 31.5933 36.2931 32.2769 35.4494 32.2769L14.7384 32.2808C13.8946 32.2808 13.2071 31.5972 13.2071 30.7496ZM13.1251 36.1949C13.1251 35.3512 13.8087 34.6676 14.6524 34.6676H26.6604C27.5041 34.6676 28.1877 35.3512 28.1877 36.1949C28.1877 37.0386 27.5041 37.7222 26.6604 37.7222H14.6564C13.8126 37.7222 13.1251 37.0386 13.1251 36.1949ZM28.1911 41.6402C28.1911 42.484 27.5075 43.1675 26.6638 43.1675H14.6558C13.812 43.1675 13.1285 42.4839 13.1285 41.6402C13.1285 40.7965 13.8121 40.1129 14.6558 40.1129H26.6638C27.5075 40.109 28.1911 40.7965 28.1911 41.6402ZM28.1911 47.0855C28.1911 47.9293 27.5075 48.6128 26.6638 48.6128H14.6558C13.812 48.6128 13.1285 47.9292 13.1285 47.0855C13.1285 46.2418 13.8121 45.5582 14.6558 45.5582H26.6638C27.5075 45.5543 28.1911 46.2379 28.1911 47.0855ZM28.1911 52.5269C28.1911 53.3707 27.5075 54.0542 26.6638 54.0542L14.6558 54.0581C13.812 54.0581 13.1285 53.3745 13.1285 52.5308C13.1285 51.6871 13.8121 51.0035 14.6558 51.0035H26.6638C27.5075 50.9996 28.1911 51.6832 28.1911 52.5269Z" fill="black"/>
</svg>
